<svg xmlns:svg="http://www.w3.org/2000/svg" xmlns="http://www.w3.org/2000/svg" width="65.25mm" height="53mm" viewBox="0 0 65.25 53" version="1.2">
    <rect class="dxf-layer-ignore" width="65.25" height="53" style="fill-opacity: 0;"/> <!-- for dxf conversion -->
    <!-- offset by the rendering options -->
    <!-- ngRepeat: child in visualization.parentRendering.children --><g class="configurator-child">
    <rect id="childBox" class="dxf-layer-ignore" x="20.7" y="50.5" width="44.45" height="2.2" style="fill-opacity: 0;"/> <!-- for dxf conversion, ignore this layer -->
    <!-- translate in model units -->
    <g transform="translate(20.7, 50.5)">
        <!-- draw from center of contrained bbox - translate by svg (width/2, height) -->
        <g transform="translate(22.225,1.1)">
            <!-- scale to font units - model unit (mm) per font size -->
            <g transform="scale(0.20277227722)">
                <!-- scale viewbox (font units) so that it fits child rendering (model units) -->
                <g transform="scale(0.9797178130884601)">
                    <!-- translate by -(ymin + height) in model units -->
                    <g transform="translate(0, 5.263671875)">
                        <!-- translate by -width/2 in font units -->
                        <g transform="translate(-87.5634765625,0)">
                            <!-- translate by -xmin in font units-->
                            <g transform="translate(0.1269531100988388, 0)">
                                <path id="child-text-path" d="M 3.30078125,0 L -0.126953125,-10.56640625 L 1.162109375,-10.56640625 L 3.759765625,-2.421875 L 6.42578125,-10.56640625 L 7.578125,-10.56640625 L 10.244140625,-2.44140625 L 12.841796875,-10.56640625 L 14.08203125,-10.56640625 L 10.68359375,0 L 9.74609375,0 L 6.982421875,-8.505859375 L 4.2578125,0 L 3.30078125,0 Z M 15.56640625,0 L 15.56640625,-10.56640625 L 16.884765625,-10.56640625 L 16.884765625,-6.40625 L 23.037109375,-6.40625 L 23.037109375,-10.56640625 L 24.345703125,-10.56640625 L 24.345703125,0 L 23.037109375,0 L 23.037109375,-5.185546875 L 16.884765625,-5.185546875 L 16.884765625,0 L 15.56640625,0 Z M 27.548828125,0 L 27.548828125,-10.625 L 28.8671875,-10.625 L 28.8671875,0 L 27.548828125,0 Z M 40.3515625,-3.359375 L 41.396484375,-2.578125 Q 40.673828125,-1.201171875 39.4140625,-0.458984375 Q 38.134765625,0.2734375 36.591796875,0.2734375 Q 34.248046875,0.2734375 32.7099609375,-1.2939453125 Q 31.171875,-2.861328125 31.171875,-5.263671875 Q 31.171875,-7.646484375 32.71484375,-9.21875 Q 34.228515625,-10.80078125 36.591796875,-10.80078125 Q 38.02734375,-10.80078125 39.228515625,-10.1611328125 Q 40.4296875,-9.521484375 41.171875,-8.33984375 L 40.068359375,-7.5390625 Q 39.853515625,-7.978515625 39.4921875,-8.37890625 Q 39.111328125,-8.759765625 38.65234375,-9.0234375 Q 37.71484375,-9.560546875 36.591796875,-9.560546875 Q 34.814453125,-9.560546875 33.671875,-8.33984375 Q 32.509765625,-7.119140625 32.509765625,-5.263671875 Q 32.509765625,-3.37890625 33.671875,-2.177734375 Q 34.814453125,-0.966796875 36.591796875,-0.966796875 Q 37.83203125,-0.966796875 38.7890625,-1.58203125 Q 39.736328125,-2.177734375 40.3515625,-3.359375 Z M 43.73046875,0 L 43.73046875,-10.56640625 L 45.048828125,-10.56640625 L 45.048828125,-6.40625 L 51.201171875,-6.40625 L 51.201171875,-10.56640625 L 52.509765625,-10.56640625 L 52.509765625,0 L 51.201171875,0 L 51.201171875,-5.185546875 L 45.048828125,-5.185546875 L 45.048828125,0 L 43.73046875,0 Z M 63.935546875,-4.08203125 L 68.564453125,-4.08203125 L 66.240234375,-8.759765625 L 63.935546875,-4.08203125 M 60.576171875,0 L 65.703125,-10.56640625 L 66.77734375,-10.56640625 L 71.962890625,0 L 70.56640625,0 L 69.140625,-2.841796875 L 63.359375,-2.841796875 L 61.982421875,0 L 60.576171875,0 Z M 74.8046875,-5.859375 L 79.404296875,-5.859375 Q 80.400390625,-5.859375 80.908203125,-6.298828125 Q 81.396484375,-6.71875 81.396484375,-7.578125 Q 81.396484375,-8.447265625 80.908203125,-8.90625 Q 80.380859375,-9.345703125 79.482421875,-9.345703125 L 74.8046875,-9.345703125 L 74.8046875,-5.859375 M 73.49609375,0 L 73.49609375,-10.56640625 L 79.482421875,-10.56640625 Q 81.005859375,-10.56640625 81.904296875,-9.78515625 Q 82.783203125,-9.00390625 82.783203125,-7.626953125 Q 82.783203125,-6.5234375 82.080078125,-5.68359375 Q 81.38671875,-4.84375 80.302734375,-4.638671875 L 82.900390625,0 L 81.46484375,0 L 78.84765625,-4.619140625 L 74.8046875,-4.619140625 L 74.8046875,0 L 73.49609375,0 Z M 85.146484375,0 L 85.146484375,-10.56640625 L 93.369140625,-10.56640625 L 93.369140625,-9.345703125 L 86.4453125,-9.345703125 L 86.4453125,-6.259765625 L 90.625,-6.259765625 L 90.625,-5.01953125 L 86.4453125,-5.01953125 L 86.4453125,-1.220703125 L 93.7890625,-1.220703125 L 93.7890625,0 L 85.146484375,0 Z M 102.216796875,0 L 102.216796875,-10.625 L 103.53515625,-10.625 L 103.53515625,0 L 102.216796875,0 Z M 114.677734375,-2.861328125 L 114.677734375,-4.423828125 L 111.8359375,-4.423828125 L 111.8359375,-5.625 L 115.9765625,-5.625 L 115.9765625,-2.470703125 Q 115.244140625,-1.142578125 114.0234375,-0.44921875 Q 112.783203125,0.2734375 111.259765625,0.2734375 Q 108.916015625,0.2734375 107.3779296875,-1.2939453125 Q 105.83984375,-2.861328125 105.83984375,-5.263671875 Q 105.83984375,-7.646484375 107.3828125,-9.21875 Q 108.896484375,-10.80078125 111.259765625,-10.80078125 Q 112.6953125,-10.80078125 113.896484375,-10.1611328125 Q 115.09765625,-9.521484375 115.83984375,-8.33984375 L 114.736328125,-7.5390625 Q 114.521484375,-7.978515625 114.16015625,-8.37890625 Q 113.779296875,-8.759765625 113.3203125,-9.0234375 Q 112.3828125,-9.560546875 111.259765625,-9.560546875 Q 109.482421875,-9.560546875 108.33984375,-8.33984375 Q 107.177734375,-7.119140625 107.177734375,-5.263671875 Q 107.177734375,-3.37890625 108.33984375,-2.177734375 Q 109.482421875,-0.966796875 111.259765625,-0.966796875 Q 112.32421875,-0.966796875 113.18359375,-1.42578125 Q 114.0234375,-1.865234375 114.677734375,-2.861328125 Z M 118.681640625,0 L 118.681640625,-10.56640625 L 119.365234375,-10.56640625 L 126.1328125,-2.666015625 L 126.1328125,-10.56640625 L 127.44140625,-10.56640625 L 127.44140625,0 L 126.77734375,0 L 119.98046875,-7.900390625 L 119.98046875,0 L 118.681640625,0 Z M 135.146484375,-0.966796875 Q 136.904296875,-0.966796875 138.06640625,-2.177734375 Q 139.19921875,-3.37890625 139.19921875,-5.263671875 Q 139.19921875,-7.119140625 138.0859375,-8.33984375 Q 136.943359375,-9.560546875 135.146484375,-9.560546875 Q 133.369140625,-9.560546875 132.2265625,-8.33984375 Q 131.064453125,-7.119140625 131.064453125,-5.263671875 Q 131.064453125,-3.37890625 132.2265625,-2.177734375 Q 133.369140625,-0.966796875 135.146484375,-0.966796875 M 135.146484375,0.2734375 Q 132.802734375,0.2734375 131.2646484375,-1.2939453125 Q 129.7265625,-2.861328125 129.7265625,-5.263671875 Q 129.7265625,-7.646484375 131.26953125,-9.21875 Q 132.783203125,-10.80078125 135.146484375,-10.80078125 Q 137.470703125,-10.80078125 139.0234375,-9.21875 Q 140.56640625,-7.646484375 140.56640625,-5.263671875 Q 140.56640625,-4.08203125 140.185546875,-3.0859375 Q 139.8046875,-2.060546875 139.0234375,-1.279296875 Q 137.490234375,0.2734375 135.146484375,0.2734375 Z M 144.111328125,-5.859375 L 148.7109375,-5.859375 Q 149.70703125,-5.859375 150.21484375,-6.298828125 Q 150.703125,-6.71875 150.703125,-7.578125 Q 150.703125,-8.447265625 150.21484375,-8.90625 Q 149.6875,-9.345703125 148.7890625,-9.345703125 L 144.111328125,-9.345703125 L 144.111328125,-5.859375 M 142.802734375,0 L 142.802734375,-10.56640625 L 148.7890625,-10.56640625 Q 150.3125,-10.56640625 151.2109375,-9.78515625 Q 152.08984375,-9.00390625 152.08984375,-7.626953125 Q 152.08984375,-6.5234375 151.38671875,-5.68359375 Q 150.693359375,-4.84375 149.609375,-4.638671875 L 152.20703125,0 L 150.771484375,0 L 148.154296875,-4.619140625 L 144.111328125,-4.619140625 L 144.111328125,0 L 142.802734375,0 Z M 154.453125,0 L 154.453125,-10.56640625 L 162.67578125,-10.56640625 L 162.67578125,-9.345703125 L 155.751953125,-9.345703125 L 155.751953125,-6.259765625 L 159.931640625,-6.259765625 L 159.931640625,-5.01953125 L 155.751953125,-5.01953125 L 155.751953125,-1.220703125 L 163.095703125,-1.220703125 L 163.095703125,0 L 154.453125,0 Z M 169.521484375,-9.345703125 L 166.337890625,-9.345703125 L 166.337890625,-1.220703125 L 169.521484375,-1.220703125 Q 171.435546875,-1.220703125 172.55859375,-2.32421875 Q 173.662109375,-3.3984375 173.662109375,-5.283203125 Q 173.662109375,-7.119140625 172.55859375,-8.2421875 Q 171.435546875,-9.345703125 169.521484375,-9.345703125 M 169.521484375,-10.56640625 Q 172.001953125,-10.56640625 173.49609375,-9.1015625 Q 175,-7.646484375 175,-5.263671875 Q 175,-2.861328125 173.515625,-1.4453125 Q 172.041015625,0 169.521484375,0 L 165.0390625,0 L 165.0390625,-10.56640625 L 169.521484375,-10.56640625 Z " fill="#97989C"/>
                            </g>
                        </g>
                    </g>
                </g>
            </g>
        </g>
    </g>
</g><!-- end ngRepeat: child in visualization.parentRendering.children --><g class="configurator-child">
    <rect id="childBox" class="dxf-layer-ignore" x="0" y="0" width="57.15" height="2.2" style="fill-opacity: 0;"/> <!-- for dxf conversion, ignore this layer -->
    <!-- translate in model units -->
    <g transform="translate(0, 0)">
        <!-- draw from center of contrained bbox - translate by svg (width/2, height) -->
        <g transform="translate(28.575,1.1)">
            <!-- scale to font units - model unit (mm) per font size -->
            <g transform="scale(0.20277227722)">
                <!-- scale viewbox (font units) so that it fits child rendering (model units) -->
                <g transform="scale(0.8397320259856029)">
                    <!-- translate by -(ymin + height) in model units -->
                    <g transform="translate(0, 5.263671875)">
                        <!-- translate by -width/2 in font units -->
                        <g transform="translate(-167.8173828125,0)">
                            <!-- translate by -xmin in font units-->
                            <g transform="translate(-1.513671875, 0)">
                                <path id="child-text-path" d="M 2.822265625,-5.859375 L 7.421875,-5.859375 Q 8.41796875,-5.859375 8.92578125,-6.298828125 Q 9.4140625,-6.71875 9.4140625,-7.578125 Q 9.4140625,-8.447265625 8.92578125,-8.90625 Q 8.3984375,-9.345703125 7.5,-9.345703125 L 2.822265625,-9.345703125 L 2.822265625,-5.859375 M 1.513671875,0 L 1.513671875,-10.56640625 L 7.5,-10.56640625 Q 9.0234375,-10.56640625 9.921875,-9.78515625 Q 10.80078125,-9.00390625 10.80078125,-7.626953125 Q 10.80078125,-6.5234375 10.09765625,-5.68359375 Q 9.404296875,-4.84375 8.3203125,-4.638671875 L 10.91796875,0 L 9.482421875,0 L 6.865234375,-4.619140625 L 2.822265625,-4.619140625 L 2.822265625,0 L 1.513671875,0 Z M 14.94140625,-4.08203125 L 19.5703125,-4.08203125 L 17.24609375,-8.759765625 L 14.94140625,-4.08203125 M 11.58203125,0 L 16.708984375,-10.56640625 L 17.783203125,-10.56640625 L 22.96875,0 L 21.572265625,0 L 20.146484375,-2.841796875 L 14.365234375,-2.841796875 L 12.98828125,0 L 11.58203125,0 Z M 24.5703125,0 L 24.5703125,-10.56640625 L 25.25390625,-10.56640625 L 32.021484375,-2.666015625 L 32.021484375,-10.56640625 L 33.330078125,-10.56640625 L 33.330078125,0 L 32.666015625,0 L 25.869140625,-7.900390625 L 25.869140625,0 L 24.5703125,0 Z M 40.9375,-9.345703125 L 37.75390625,-9.345703125 L 37.75390625,-1.220703125 L 40.9375,-1.220703125 Q 42.8515625,-1.220703125 43.974609375,-2.32421875 Q 45.078125,-3.3984375 45.078125,-5.283203125 Q 45.078125,-7.119140625 43.974609375,-8.2421875 Q 42.8515625,-9.345703125 40.9375,-9.345703125 M 40.9375,-10.56640625 Q 43.41796875,-10.56640625 44.912109375,-9.1015625 Q 46.416015625,-7.646484375 46.416015625,-5.263671875 Q 46.416015625,-2.861328125 44.931640625,-1.4453125 Q 43.45703125,0 40.9375,0 L 36.455078125,0 L 36.455078125,-10.56640625 L 40.9375,-10.56640625 Z M 50.87890625,0 L 50.87890625,-5.302734375 L 46.171875,-10.56640625 L 47.802734375,-10.56640625 L 51.54296875,-6.40625 L 55.263671875,-10.56640625 L 56.923828125,-10.56640625 L 52.177734375,-5.283203125 L 52.177734375,0 L 50.87890625,0 Z M 65.78125,0 L 65.78125,-9.345703125 L 61.396484375,-9.345703125 L 61.396484375,-10.56640625 L 71.50390625,-10.56640625 L 71.50390625,-9.345703125 L 67.109375,-9.345703125 L 67.109375,0 L 65.78125,0 Z M 72.0703125,0 L 72.0703125,-10.56640625 L 80.29296875,-10.56640625 L 80.29296875,-9.345703125 L 73.369140625,-9.345703125 L 73.369140625,-6.259765625 L 77.548828125,-6.259765625 L 77.548828125,-5.01953125 L 73.369140625,-5.01953125 L 73.369140625,-1.220703125 L 80.712890625,-1.220703125 L 80.712890625,0 L 72.0703125,0 Z M 81.66015625,-1.6015625 L 82.412109375,-2.724609375 Q 83.53515625,-1.845703125 84.736328125,-1.40625 Q 85.9375,-0.947265625 87.099609375,-0.947265625 Q 88.5546875,-0.947265625 89.453125,-1.5625 Q 90.361328125,-2.177734375 90.361328125,-3.1640625 Q 90.361328125,-3.92578125 89.697265625,-4.443359375 Q 89.384765625,-4.677734375 88.92578125,-4.86328125 Q 88.4375,-5.01953125 87.900390625,-5.01953125 L 87.119140625,-5.078125 Q 85.9375,-5.078125 85.078125,-5.263671875 Q 84.19921875,-5.439453125 83.59375,-5.703125 Q 82.83203125,-6.083984375 82.5,-6.62109375 Q 82.119140625,-7.138671875 82.119140625,-7.880859375 Q 82.119140625,-9.16015625 83.251953125,-9.98046875 Q 84.39453125,-10.80078125 86.15234375,-10.80078125 Q 87.48046875,-10.80078125 88.759765625,-10.361328125 Q 90.0390625,-9.90234375 91.162109375,-9.08203125 L 90.400390625,-7.978515625 Q 89.453125,-8.740234375 88.37890625,-9.16015625 Q 87.294921875,-9.560546875 86.171875,-9.560546875 Q 85.0390625,-9.560546875 84.2578125,-9.1015625 Q 83.45703125,-8.623046875 83.45703125,-7.919921875 Q 83.45703125,-7.666015625 83.57421875,-7.4609375 Q 83.671875,-7.24609375 83.7353515625,-7.1728515625 Q 83.798828125,-7.099609375 83.974609375,-7.001953125 Q 84.31640625,-6.71875 85.01953125,-6.5625 Q 85.712890625,-6.38671875 86.7578125,-6.38671875 L 88.28125,-6.259765625 Q 89.873046875,-6.083984375 90.7958984375,-5.224609375 Q 91.71875,-4.365234375 91.71875,-3.125 Q 91.71875,-1.640625 90.458984375,-0.68359375 Q 89.1796875,0.2734375 87.119140625,0.2734375 Q 86.357421875,0.2734375 85.615234375,0.15625 Q 84.873046875,0.0390625 84.19921875,-0.185546875 Q 82.919921875,-0.625 81.66015625,-1.6015625 Z M 96.03515625,0 L 96.03515625,-9.345703125 L 91.650390625,-9.345703125 L 91.650390625,-10.56640625 L 101.7578125,-10.56640625 L 101.7578125,-9.345703125 L 97.36328125,-9.345703125 L 97.36328125,0 L 96.03515625,0 Z M 110.5078125,0 L 107.080078125,-10.56640625 L 108.369140625,-10.56640625 L 110.966796875,-2.421875 L 113.6328125,-10.56640625 L 114.78515625,-10.56640625 L 117.451171875,-2.44140625 L 120.048828125,-10.56640625 L 121.2890625,-10.56640625 L 117.890625,0 L 116.953125,0 L 114.189453125,-8.505859375 L 111.46484375,0 L 110.5078125,0 Z M 122.7734375,0 L 122.7734375,-10.56640625 L 124.091796875,-10.56640625 L 124.091796875,-6.40625 L 130.244140625,-6.40625 L 130.244140625,-10.56640625 L 131.552734375,-10.56640625 L 131.552734375,0 L 130.244140625,0 L 130.244140625,-5.185546875 L 124.091796875,-5.185546875 L 124.091796875,0 L 122.7734375,0 Z M 134.755859375,0 L 134.755859375,-10.625 L 136.07421875,-10.625 L 136.07421875,0 L 134.755859375,0 Z M 147.55859375,-3.359375 L 148.603515625,-2.578125 Q 147.880859375,-1.201171875 146.62109375,-0.458984375 Q 145.341796875,0.2734375 143.798828125,0.2734375 Q 141.455078125,0.2734375 139.9169921875,-1.2939453125 Q 138.37890625,-2.861328125 138.37890625,-5.263671875 Q 138.37890625,-7.646484375 139.921875,-9.21875 Q 141.435546875,-10.80078125 143.798828125,-10.80078125 Q 145.234375,-10.80078125 146.435546875,-10.1611328125 Q 147.63671875,-9.521484375 148.37890625,-8.33984375 L 147.275390625,-7.5390625 Q 147.060546875,-7.978515625 146.69921875,-8.37890625 Q 146.318359375,-8.759765625 145.859375,-9.0234375 Q 144.921875,-9.560546875 143.798828125,-9.560546875 Q 142.021484375,-9.560546875 140.87890625,-8.33984375 Q 139.716796875,-7.119140625 139.716796875,-5.263671875 Q 139.716796875,-3.37890625 140.87890625,-2.177734375 Q 142.021484375,-0.966796875 143.798828125,-0.966796875 Q 145.0390625,-0.966796875 145.99609375,-1.58203125 Q 146.943359375,-2.177734375 147.55859375,-3.359375 Z M 150.9375,0 L 150.9375,-10.56640625 L 152.255859375,-10.56640625 L 152.255859375,-6.40625 L 158.408203125,-6.40625 L 158.408203125,-10.56640625 L 159.716796875,-10.56640625 L 159.716796875,0 L 158.408203125,0 L 158.408203125,-5.185546875 L 152.255859375,-5.185546875 L 152.255859375,0 L 150.9375,0 Z M 169.365234375,0 L 169.365234375,-10.56640625 L 170.68359375,-10.56640625 L 170.68359375,-6.40625 L 176.8359375,-6.40625 L 176.8359375,-10.56640625 L 178.14453125,-10.56640625 L 178.14453125,0 L 176.8359375,0 L 176.8359375,-5.185546875 L 170.68359375,-5.185546875 L 170.68359375,0 L 169.365234375,0 Z M 183.10546875,-4.08203125 L 187.734375,-4.08203125 L 185.41015625,-8.759765625 L 183.10546875,-4.08203125 M 179.74609375,0 L 184.873046875,-10.56640625 L 185.947265625,-10.56640625 L 191.1328125,0 L 189.736328125,0 L 188.310546875,-2.841796875 L 182.529296875,-2.841796875 L 181.15234375,0 L 179.74609375,0 Z M 191.73828125,-1.6015625 L 192.490234375,-2.724609375 Q 193.61328125,-1.845703125 194.814453125,-1.40625 Q 196.015625,-0.947265625 197.177734375,-0.947265625 Q 198.6328125,-0.947265625 199.53125,-1.5625 Q 200.439453125,-2.177734375 200.439453125,-3.1640625 Q 200.439453125,-3.92578125 199.775390625,-4.443359375 Q 199.462890625,-4.677734375 199.00390625,-4.86328125 Q 198.515625,-5.01953125 197.978515625,-5.01953125 L 197.197265625,-5.078125 Q 196.015625,-5.078125 195.15625,-5.263671875 Q 194.27734375,-5.439453125 193.671875,-5.703125 Q 192.91015625,-6.083984375 192.578125,-6.62109375 Q 192.197265625,-7.138671875 192.197265625,-7.880859375 Q 192.197265625,-9.16015625 193.330078125,-9.98046875 Q 194.47265625,-10.80078125 196.23046875,-10.80078125 Q 197.55859375,-10.80078125 198.837890625,-10.361328125 Q 200.1171875,-9.90234375 201.240234375,-9.08203125 L 200.478515625,-7.978515625 Q 199.53125,-8.740234375 198.45703125,-9.16015625 Q 197.373046875,-9.560546875 196.25,-9.560546875 Q 195.1171875,-9.560546875 194.3359375,-9.1015625 Q 193.53515625,-8.623046875 193.53515625,-7.919921875 Q 193.53515625,-7.666015625 193.65234375,-7.4609375 Q 193.75,-7.24609375 193.8134765625,-7.1728515625 Q 193.876953125,-7.099609375 194.052734375,-7.001953125 Q 194.39453125,-6.71875 195.09765625,-6.5625 Q 195.791015625,-6.38671875 196.8359375,-6.38671875 L 198.359375,-6.259765625 Q 199.951171875,-6.083984375 200.8740234375,-5.224609375 Q 201.796875,-4.365234375 201.796875,-3.125 Q 201.796875,-1.640625 200.537109375,-0.68359375 Q 199.2578125,0.2734375 197.197265625,0.2734375 Q 196.435546875,0.2734375 195.693359375,0.15625 Q 194.951171875,0.0390625 194.27734375,-0.185546875 Q 192.998046875,-0.625 191.73828125,-1.6015625 Z M 215.263671875,-9.345703125 L 212.080078125,-9.345703125 L 212.080078125,-1.220703125 L 215.263671875,-1.220703125 Q 217.177734375,-1.220703125 218.30078125,-2.32421875 Q 219.404296875,-3.3984375 219.404296875,-5.283203125 Q 219.404296875,-7.119140625 218.30078125,-8.2421875 Q 217.177734375,-9.345703125 215.263671875,-9.345703125 M 215.263671875,-10.56640625 Q 217.744140625,-10.56640625 219.23828125,-9.1015625 Q 220.7421875,-7.646484375 220.7421875,-5.263671875 Q 220.7421875,-2.861328125 219.2578125,-1.4453125 Q 217.783203125,0 215.263671875,0 L 210.78125,0 L 210.78125,-10.56640625 L 215.263671875,-10.56640625 Z M 223.046875,0 L 223.046875,-10.56640625 L 231.26953125,-10.56640625 L 231.26953125,-9.345703125 L 224.345703125,-9.345703125 L 224.345703125,-6.259765625 L 228.525390625,-6.259765625 L 228.525390625,-5.01953125 L 224.345703125,-5.01953125 L 224.345703125,-1.220703125 L 231.689453125,-1.220703125 L 231.689453125,0 L 223.046875,0 Z M 234.931640625,-6.40625 L 239.931640625,-6.40625 Q 240.732421875,-6.40625 241.19140625,-6.7578125 Q 241.630859375,-7.158203125 241.630859375,-7.861328125 Q 241.630859375,-8.603515625 241.2109375,-8.984375 Q 240.771484375,-9.345703125 239.931640625,-9.345703125 L 234.931640625,-9.345703125 L 234.931640625,-6.40625 M 234.931640625,-1.220703125 L 240.390625,-1.220703125 Q 241.2890625,-1.220703125 241.81640625,-1.7578125 Q 242.314453125,-2.3046875 242.314453125,-3.203125 Q 242.314453125,-4.08203125 241.7919921875,-4.6337890625 Q 241.26953125,-5.185546875 240.390625,-5.185546875 L 234.931640625,-5.185546875 L 234.931640625,-1.220703125 M 233.6328125,0 L 233.6328125,-10.56640625 L 239.814453125,-10.56640625 Q 241.357421875,-10.56640625 242.1435546875,-9.90234375 Q 242.9296875,-9.23828125 242.9296875,-7.919921875 Q 242.9296875,-7.265625 242.6953125,-6.806640625 Q 242.451171875,-6.318359375 241.9921875,-6.005859375 Q 242.8125,-5.517578125 243.251953125,-4.82421875 Q 243.671875,-4.1015625 243.671875,-3.18359375 Q 243.671875,-1.71875 242.734375,-0.859375 Q 241.77734375,0 240.13671875,0 L 233.6328125,0 Z M 247.314453125,-10.56640625 L 247.314453125,-3.720703125 Q 247.314453125,-2.099609375 247.919921875,-1.5234375 Q 248.583984375,-0.966796875 250.322265625,-0.966796875 Q 252.138671875,-0.966796875 252.734375,-1.5234375 Q 253.330078125,-2.080078125 253.330078125,-3.720703125 L 253.330078125,-10.56640625 L 254.638671875,-10.56640625 L 254.638671875,-3.359375 Q 254.638671875,-1.4453125 253.6376953125,-0.5859375 Q 252.63671875,0.2734375 250.322265625,0.2734375 Q 248.037109375,0.2734375 247.041015625,-0.5859375 Q 246.015625,-1.4453125 246.015625,-3.359375 L 246.015625,-10.56640625 L 247.314453125,-10.56640625 Z M 265.537109375,-2.861328125 L 265.537109375,-4.423828125 L 262.6953125,-4.423828125 L 262.6953125,-5.625 L 266.8359375,-5.625 L 266.8359375,-2.470703125 Q 266.103515625,-1.142578125 264.8828125,-0.44921875 Q 263.642578125,0.2734375 262.119140625,0.2734375 Q 259.775390625,0.2734375 258.2373046875,-1.2939453125 Q 256.69921875,-2.861328125 256.69921875,-5.263671875 Q 256.69921875,-7.646484375 258.2421875,-9.21875 Q 259.755859375,-10.80078125 262.119140625,-10.80078125 Q 263.5546875,-10.80078125 264.755859375,-10.1611328125 Q 265.95703125,-9.521484375 266.69921875,-8.33984375 L 265.595703125,-7.5390625 Q 265.380859375,-7.978515625 265.01953125,-8.37890625 Q 264.638671875,-8.759765625 264.1796875,-9.0234375 Q 263.2421875,-9.560546875 262.119140625,-9.560546875 Q 260.341796875,-9.560546875 259.19921875,-8.33984375 Q 258.037109375,-7.119140625 258.037109375,-5.263671875 Q 258.037109375,-3.37890625 259.19921875,-2.177734375 Q 260.341796875,-0.966796875 262.119140625,-0.966796875 Q 263.18359375,-0.966796875 264.04296875,-1.42578125 Q 264.8828125,-1.865234375 265.537109375,-2.861328125 Z M 276.005859375,0 L 276.005859375,-10.56640625 L 277.3046875,-10.56640625 L 277.3046875,-1.220703125 L 284.130859375,-1.220703125 L 284.130859375,0 L 276.005859375,0 Z M 287.490234375,-4.08203125 L 292.119140625,-4.08203125 L 289.794921875,-8.759765625 L 287.490234375,-4.08203125 M 284.130859375,0 L 289.2578125,-10.56640625 L 290.33203125,-10.56640625 L 295.517578125,0 L 294.12109375,0 L 292.6953125,-2.841796875 L 286.9140625,-2.841796875 L 285.537109375,0 L 284.130859375,0 Z M 299.27734375,0 L 299.27734375,-5.302734375 L 294.5703125,-10.56640625 L 296.201171875,-10.56640625 L 299.94140625,-6.40625 L 303.662109375,-10.56640625 L 305.322265625,-10.56640625 L 300.576171875,-5.283203125 L 300.576171875,0 L 299.27734375,0 Z M 305.91796875,0 L 305.91796875,-10.56640625 L 314.140625,-10.56640625 L 314.140625,-9.345703125 L 307.216796875,-9.345703125 L 307.216796875,-6.259765625 L 311.396484375,-6.259765625 L 311.396484375,-5.01953125 L 307.216796875,-5.01953125 L 307.216796875,-1.220703125 L 314.560546875,-1.220703125 L 314.560546875,0 L 305.91796875,0 Z M 317.744140625,-5.859375 L 322.34375,-5.859375 Q 323.33984375,-5.859375 323.84765625,-6.298828125 Q 324.3359375,-6.71875 324.3359375,-7.578125 Q 324.3359375,-8.447265625 323.84765625,-8.90625 Q 323.3203125,-9.345703125 322.421875,-9.345703125 L 317.744140625,-9.345703125 L 317.744140625,-5.859375 M 316.435546875,0 L 316.435546875,-10.56640625 L 322.421875,-10.56640625 Q 323.9453125,-10.56640625 324.84375,-9.78515625 Q 325.72265625,-9.00390625 325.72265625,-7.626953125 Q 325.72265625,-6.5234375 325.01953125,-5.68359375 Q 324.326171875,-4.84375 323.2421875,-4.638671875 L 325.83984375,0 L 324.404296875,0 L 321.787109375,-4.619140625 L 317.744140625,-4.619140625 L 317.744140625,0 L 316.435546875,0 Z M 327.08984375,-1.6015625 L 327.841796875,-2.724609375 Q 328.96484375,-1.845703125 330.166015625,-1.40625 Q 331.3671875,-0.947265625 332.529296875,-0.947265625 Q 333.984375,-0.947265625 334.8828125,-1.5625 Q 335.791015625,-2.177734375 335.791015625,-3.1640625 Q 335.791015625,-3.92578125 335.126953125,-4.443359375 Q 334.814453125,-4.677734375 334.35546875,-4.86328125 Q 333.8671875,-5.01953125 333.330078125,-5.01953125 L 332.548828125,-5.078125 Q 331.3671875,-5.078125 330.5078125,-5.263671875 Q 329.62890625,-5.439453125 329.0234375,-5.703125 Q 328.26171875,-6.083984375 327.9296875,-6.62109375 Q 327.548828125,-7.138671875 327.548828125,-7.880859375 Q 327.548828125,-9.16015625 328.681640625,-9.98046875 Q 329.82421875,-10.80078125 331.58203125,-10.80078125 Q 332.91015625,-10.80078125 334.189453125,-10.361328125 Q 335.46875,-9.90234375 336.591796875,-9.08203125 L 335.830078125,-7.978515625 Q 334.8828125,-8.740234375 333.80859375,-9.16015625 Q 332.724609375,-9.560546875 331.6015625,-9.560546875 Q 330.46875,-9.560546875 329.6875,-9.1015625 Q 328.88671875,-8.623046875 328.88671875,-7.919921875 Q 328.88671875,-7.666015625 329.00390625,-7.4609375 Q 329.1015625,-7.24609375 329.1650390625,-7.1728515625 Q 329.228515625,-7.099609375 329.404296875,-7.001953125 Q 329.74609375,-6.71875 330.44921875,-6.5625 Q 331.142578125,-6.38671875 332.1875,-6.38671875 L 333.7109375,-6.259765625 Q 335.302734375,-6.083984375 336.2255859375,-5.224609375 Q 337.1484375,-4.365234375 337.1484375,-3.125 Q 337.1484375,-1.640625 335.888671875,-0.68359375 Q 334.609375,0.2734375 332.548828125,0.2734375 Q 331.787109375,0.2734375 331.044921875,0.15625 Q 330.302734375,0.0390625 329.62890625,-0.185546875 Q 328.349609375,-0.625 327.08984375,-1.6015625 Z " fill="#97989C"/>
                            </g>
                        </g>
                    </g>
                </g>
            </g>
        </g>
    </g>
</g><!-- end ngRepeat: child in visualization.parentRendering.children -->
</svg>
