<?xml version="1.0" encoding="UTF-8" standalone="no"?>
<svg xmlns="http://www.w3.org/2000/svg" width="65.25mm" height="53mm" viewbox="0 0 65.25 53" version="1.2">
    <rect width="65.25" height="53" style="fill: rgb(255, 0, 0); fill-opacity: 0.3;"/>
    <g class="configurator-child">
        <rect id="childBox" x="20.7" y="50.5" width="44.45" height="2.2"
              style="fill: rgb(0, 0, 255); fill-opacity: 0.3;"/>
        <g transform="translate(20.7, 50.5)">
            <g transform="translate(22.225,2.2)">
                <g transform="scale(0.20277227722)">
                    <g transform="translate(0, -0.25390625)">
                        <g transform="translate(-53.017578125,0)">
                            <g transform="translate(-1.58203125, 0)">
                                <path id="child-text-path" fill="#97989C"
                                      d="M 1.58203125,0 L 1.58203125,-10.56640625 L 2.880859375,-10.56640625 L 2.880859375,-1.220703125 L 9.70703125,-1.220703125 L 9.70703125,0 L 1.58203125,0 Z M 15.33203125,-0.947265625 Q 16.97265625,-0.947265625 17.98828125,-1.845703125 Q 19.013671875,-2.724609375 19.013671875,-4.08203125 Q 19.013671875,-5.419921875 17.98828125,-6.318359375 Q 16.953125,-7.2265625 15.33203125,-7.2265625 Q 13.73046875,-7.2265625 12.705078125,-6.337890625 Q 11.689453125,-5.439453125 11.689453125,-4.08203125 Q 11.689453125,-2.724609375 12.724609375,-1.845703125 Q 13.75,-0.947265625 15.33203125,-0.947265625 M 15.33203125,0.25390625 Q 13.193359375,0.25390625 11.787109375,-0.986328125 Q 10.380859375,-2.20703125 10.380859375,-4.08203125 Q 10.380859375,-5.91796875 11.787109375,-7.158203125 Q 13.173828125,-8.37890625 15.33203125,-8.37890625 Q 17.529296875,-8.37890625 18.90625,-7.177734375 Q 20.29296875,-5.986328125 20.29296875,-4.08203125 Q 20.29296875,-2.2265625 18.9013671875,-0.986328125 Q 17.509765625,0.25390625 15.33203125,0.25390625 Z M 23.88671875,0 L 21.123046875,-8.18359375 L 22.392578125,-8.18359375 L 24.345703125,-2.177734375 L 26.38671875,-8.18359375 L 27.451171875,-8.18359375 L 29.4921875,-2.177734375 L 31.46484375,-8.18359375 L 32.705078125,-8.18359375 L 29.990234375,0 L 29.072265625,0 L 26.93359375,-6.279296875 L 24.765625,0 L 23.88671875,0 Z M 34.23828125,0 L 34.23828125,-8.173828125 L 41.81640625,-8.173828125 L 41.81640625,-6.982421875 L 35.498046875,-6.982421875 L 35.498046875,-4.94140625 L 39.638671875,-4.94140625 L 39.638671875,-3.759765625 L 35.498046875,-3.759765625 L 35.498046875,-1.181640625 L 42.177734375,-1.181640625 L 42.177734375,0 L 34.23828125,0 Z M 45.263671875,-4.765625 L 49.560546875,-4.765625 Q 50.224609375,-4.765625 50.576171875,-5.05859375 Q 50.91796875,-5.361328125 50.91796875,-5.87890625 Q 50.91796875,-6.40625 50.5712890625,-6.6943359375 Q 50.224609375,-6.982421875 49.560546875,-6.982421875 L 45.263671875,-6.982421875 L 45.263671875,-4.765625 M 45.263671875,-3.583984375 L 45.263671875,0 L 44.00390625,0 L 44.00390625,-8.154296875 L 49.560546875,-8.154296875 Q 50.76171875,-8.154296875 51.484375,-7.55859375 Q 52.197265625,-6.943359375 52.197265625,-5.87890625 Q 52.197265625,-5 51.66015625,-4.365234375 Q 51.103515625,-3.73046875 50.1953125,-3.583984375 L 52.4609375,0 L 51.083984375,0 L 48.779296875,-3.583984375 L 45.263671875,-3.583984375 Z M 62.958984375,0 L 62.958984375,-9.345703125 L 58.57421875,-9.345703125 L 58.57421875,-10.56640625 L 68.681640625,-10.56640625 L 68.681640625,-9.345703125 L 64.287109375,-9.345703125 L 64.287109375,0 L 62.958984375,0 Z M 69.052734375,0 L 69.052734375,-8.173828125 L 76.630859375,-8.173828125 L 76.630859375,-6.982421875 L 70.3125,-6.982421875 L 70.3125,-4.94140625 L 74.453125,-4.94140625 L 74.453125,-3.759765625 L 70.3125,-3.759765625 L 70.3125,-1.181640625 L 76.9921875,-1.181640625 L 76.9921875,0 L 69.052734375,0 Z M 77.59765625,0 L 81.015625,-4.1015625 L 77.65625,-8.18359375 L 79.169921875,-8.18359375 L 81.77734375,-5.01953125 L 84.375,-8.18359375 L 85.9375,-8.18359375 L 82.55859375,-4.140625 L 85.9765625,0 L 84.443359375,0 L 81.77734375,-3.203125 L 79.091796875,0 L 77.59765625,0 Z M 89.47265625,0 L 89.47265625,-7.041015625 L 86.044921875,-7.041015625 L 86.044921875,-8.173828125 L 94.150390625,-8.173828125 L 94.150390625,-7.041015625 L 90.732421875,-7.041015625 L 90.732421875,0 L 89.47265625,0 Z M 106.298828125,0.05859375 L 106.298828125,-10.09765625 L 107.6171875,-10.09765625 L 107.6171875,0.05859375 L 106.298828125,0.05859375 Z "/>
                            </g>
                        </g>
                    </g>
                </g>
            </g>
        </g>
    </g>
    <g class="configurator-child">
        <rect id="childBox" x="0" y="0" width="57.15" height="2.2" style="fill: rgb(0, 0, 255); fill-opacity: 0.3;"/>
        <g transform="translate(0, 0)">
            <g transform="translate(28.575,2.2)">
                <g transform="scale(0.20277227722)">
                    <g transform="translate(0, -0.2734375)">
                        <g transform="translate(-52.5634765625,0)">
                            <g transform="translate(-1.298828125, 0)">
                                <path id="child-text-path" fill="#97989C"
                                      d="M 2.59765625,-10.56640625 L 2.59765625,-3.720703125 Q 2.59765625,-2.099609375 3.203125,-1.5234375 Q 3.8671875,-0.966796875 5.60546875,-0.966796875 Q 7.421875,-0.966796875 8.017578125,-1.5234375 Q 8.61328125,-2.080078125 8.61328125,-3.720703125 L 8.61328125,-10.56640625 L 9.921875,-10.56640625 L 9.921875,-3.359375 Q 9.921875,-1.4453125 8.9208984375,-0.5859375 Q 7.919921875,0.2734375 5.60546875,0.2734375 Q 3.3203125,0.2734375 2.32421875,-0.5859375 Q 1.298828125,-1.4453125 1.298828125,-3.359375 L 1.298828125,-10.56640625 L 2.59765625,-10.56640625 Z M 13.90625,-4.765625 L 18.525390625,-4.765625 Q 19.12109375,-4.765625 19.501953125,-5.0390625 Q 19.86328125,-5.361328125 19.86328125,-5.87890625 Q 19.86328125,-6.38671875 19.521484375,-6.6796875 Q 19.1796875,-6.982421875 18.583984375,-6.982421875 L 13.90625,-6.982421875 L 13.90625,-4.765625 M 13.90625,-3.583984375 L 13.90625,0 L 12.646484375,0 L 12.646484375,-8.173828125 L 18.525390625,-8.173828125 Q 19.74609375,-8.173828125 20.4541015625,-7.578125 Q 21.162109375,-6.982421875 21.162109375,-5.8984375 Q 21.162109375,-4.8828125 20.478515625,-4.23828125 Q 19.8046875,-3.583984375 18.662109375,-3.583984375 L 13.90625,-3.583984375 Z M 24.228515625,-4.765625 L 28.84765625,-4.765625 Q 29.443359375,-4.765625 29.82421875,-5.0390625 Q 30.185546875,-5.361328125 30.185546875,-5.87890625 Q 30.185546875,-6.38671875 29.84375,-6.6796875 Q 29.501953125,-6.982421875 28.90625,-6.982421875 L 24.228515625,-6.982421875 L 24.228515625,-4.765625 M 24.228515625,-3.583984375 L 24.228515625,0 L 22.96875,0 L 22.96875,-8.173828125 L 28.84765625,-8.173828125 Q 30.068359375,-8.173828125 30.7763671875,-7.578125 Q 31.484375,-6.982421875 31.484375,-5.8984375 Q 31.484375,-4.8828125 30.80078125,-4.23828125 Q 30.126953125,-3.583984375 28.984375,-3.583984375 L 24.228515625,-3.583984375 Z M 33.271484375,0 L 33.271484375,-8.173828125 L 40.849609375,-8.173828125 L 40.849609375,-6.982421875 L 34.53125,-6.982421875 L 34.53125,-4.94140625 L 38.671875,-4.94140625 L 38.671875,-3.759765625 L 34.53125,-3.759765625 L 34.53125,-1.181640625 L 41.2109375,-1.181640625 L 41.2109375,0 L 33.271484375,0 Z M 44.296875,-4.765625 L 48.59375,-4.765625 Q 49.2578125,-4.765625 49.609375,-5.05859375 Q 49.951171875,-5.361328125 49.951171875,-5.87890625 Q 49.951171875,-6.40625 49.6044921875,-6.6943359375 Q 49.2578125,-6.982421875 48.59375,-6.982421875 L 44.296875,-6.982421875 L 44.296875,-4.765625 M 44.296875,-3.583984375 L 44.296875,0 L 43.037109375,0 L 43.037109375,-8.154296875 L 48.59375,-8.154296875 Q 49.794921875,-8.154296875 50.517578125,-7.55859375 Q 51.23046875,-6.943359375 51.23046875,-5.87890625 Q 51.23046875,-5 50.693359375,-4.365234375 Q 50.13671875,-3.73046875 49.228515625,-3.583984375 L 51.494140625,0 L 50.1171875,0 L 47.8125,-3.583984375 L 44.296875,-3.583984375 Z M 61.9140625,0 L 61.9140625,-7.041015625 L 58.486328125,-7.041015625 L 58.486328125,-8.173828125 L 66.591796875,-8.173828125 L 66.591796875,-7.041015625 L 63.173828125,-7.041015625 L 63.173828125,0 L 61.9140625,0 Z M 67.861328125,0 L 67.861328125,-8.173828125 L 75.439453125,-8.173828125 L 75.439453125,-6.982421875 L 69.12109375,-6.982421875 L 69.12109375,-4.94140625 L 73.26171875,-4.94140625 L 73.26171875,-3.759765625 L 69.12109375,-3.759765625 L 69.12109375,-1.181640625 L 75.80078125,-1.181640625 L 75.80078125,0 L 67.861328125,0 Z M 76.40625,0 L 79.82421875,-4.1015625 L 76.46484375,-8.18359375 L 77.978515625,-8.18359375 L 80.5859375,-5.01953125 L 83.18359375,-8.18359375 L 84.74609375,-8.18359375 L 81.3671875,-4.140625 L 84.78515625,0 L 83.251953125,0 L 80.5859375,-3.203125 L 77.900390625,0 L 76.40625,0 Z M 88.28125,0 L 88.28125,-7.041015625 L 84.853515625,-7.041015625 L 84.853515625,-8.173828125 L 92.958984375,-8.173828125 L 92.958984375,-7.041015625 L 89.541015625,-7.041015625 L 89.541015625,0 L 88.28125,0 Z M 105.107421875,0.05859375 L 105.107421875,-10.09765625 L 106.42578125,-10.09765625 L 106.42578125,0.05859375 L 105.107421875,0.05859375 Z "/>
                            </g>
                        </g>
                    </g>
                </g>
            </g>
        </g>
    </g>
</svg>
