<?xml version="1.0" encoding="UTF-8" standalone="no"?>
<svg xmlns="http://www.w3.org/2000/svg" viewBox="0 0 65.25 53" version="1.2">
    <g class="configurator-child">
        <g transform="translate(0, 0)">
            <g transform="translate(28.575,2.2)">
                <g transform="scale(0.20277227)">
                    <g transform="translate(0, -0.2734375)">
                        <g transform="translate(-52.5634765625,0)">
                            <g transform="translate(-1.298828125, 0)">
                                <path id="child-text-path" fill="#97989C"
                                      d="M 13.90625,-4.765625 L 18.525390625,-4.765625 Q 19.12109375,-4.765625 19.501953125,-5.0390625 Q 19.86328125,-5.361328125 19.86328125,-5.87890625 Q 19.86328125,-6.38671875 19.521484375,-6.6796875 Q 19.1796875,-6.982421875 18.583984375,-6.982421875 L 13.90625,-6.982421875 L 13.90625,-4.765625 M 13.90625,-3.583984375 L 13.90625,0 L 12.646484375,0 L 12.646484375,-8.173828125 L 18.525390625,-8.173828125 Q 19.74609375,-8.173828125 20.4541015625,-7.578125 Q 21.162109375,-6.982421875 21.162109375,-5.8984375 Q 21.162109375,-4.8828125 20.478515625,-4.23828125 Q 19.8046875,-3.583984375 18.662109375,-3.583984375 L 13.90625,-3.583984375 Z"/>
                            </g>
                        </g>
                    </g>
                </g>
            </g>
        </g>
    </g>
</svg>
